<?xml version="1.0" encoding="utf-8"?>
<!-- Generator: Adobe Illustrator 26.0.3, SVG Export Plug-In . SVG Version: 6.00 Build 0)  -->
<svg version="1.0" id="Layer_1" xmlns="http://www.w3.org/2000/svg" xmlns:xlink="http://www.w3.org/1999/xlink" x="0px" y="0px"
	 viewBox="0 0 939 715.8" style="enable-background:new 0 0 939 715.8;" xml:space="preserve">
<style type="text/css">
	.st0{fill:#1D1D1B;}
	.st1{fill:none;}
	.st2{fill:#137F36;}
	.st3{fill:#4B62A1;}
	.st4{fill:#83B6B9;}
	.st5{fill:#83206E;}
	.st6{fill:#CE141A;}
	.st7{fill:#AD6DAA;}
	.st8{fill:none;stroke:#12100C;stroke-width:0.19;stroke-miterlimit:2.61;}
</style>
<path class="st0" d="M485.8,186.1c12.9,0,20.6,6.4,20.6,24v128.5c0,17.6-7.7,24-20.6,24H463V186.1H485.8z M422.5,397.8h64
	c40.5,0,60.3-21.5,60.3-61.1V211.8c0-39.5-19.9-61.1-60.3-61.1h-64V397.8z"/>
<path class="st0" d="M570.8,150.8v188.1c0,39.5,20.6,62.1,60.3,62.1s60.3-22.6,60.3-62.1V150.8h-38.2v190.6c0,17.6-8.1,24-21,24
	s-21-6.4-21-24V150.8H570.8z"/>
<rect x="105" y="147.8" class="st1" width="729" height="420.2"/>
<polygon class="st0" points="708,150.8 708,186.1 750.3,186.1 750.3,397.8 790.8,397.8 790.8,186.1 833.1,186.1 833.1,150.8 "/>
<polygon class="st2" points="279.3,231.5 366.5,231.5 279.3,148.3 "/>
<polygon class="st3" points="279.1,231.5 279.1,314.8 366.2,314.8 "/>
<polygon class="st4" points="105,147.8 105,231.5 192.2,231.5 "/>
<polygon class="st5" points="192.6,231.5 279.8,231.5 192.6,148.3 "/>
<polygon class="st6" points="193.2,231.5 193.2,314.8 280.4,314.8 "/>
<polygon class="st7" points="279.1,314.8 279.1,398 366.3,398 "/>
<path class="st0" d="M117.9,461.4c2.3,0,3.7,1,3.7,3.9V486c0,2.9-1.4,3.9-3.7,3.9h-4.1v-28.5H117.9z M106.5,495.6h11.6
	c7.3,0,10.9-3.5,10.9-9.9v-20.2c0-6.4-3.6-9.9-10.9-9.9h-11.6V495.6z"/>
<path class="st0" d="M133.2,455.7v30.4c0,6.4,3.7,10,10.9,10c7.1,0,10.9-3.6,10.9-10v-30.4h-6.9v30.8c0,2.9-1.5,3.9-3.8,3.9
	s-3.8-1-3.8-3.9v-30.8H133.2z"/>
<path class="st0" d="M170.7,461.4c2.6,0,3.7,1.3,3.7,4.1v3.9c0,3.2-1.7,4.2-4.4,4.2h-2.8v-12.2H170.7z M182.5,495.6
	c-0.7-1.5-0.9-3.2-0.8-4.9v-6.1c0-4.2-1.2-7.2-4.8-8.5c3.2-1.3,4.8-4,4.8-8.1v-3.1c0-6.1-3.2-9.2-10.8-9.2h-11v39.9h7.3v-16.3h2.6
	c3.3,0,4.8,1.4,4.8,5.1v6.3c0,3.2,0.3,3.9,0.7,4.9H182.5z"/>
<path class="st0" d="M197.3,461.4c2.6,0,3.7,1.2,3.7,4.1v2.2c0,3.2-1.7,4.2-4.4,4.2h-2.8v-10.5H197.3z M197,477.6
	c3.3,0,4.7,1.1,4.7,4.8v3.5c0,3-1.3,3.9-3.8,3.9h-4.2v-12.3L197,477.6z M197.5,455.7h-11v39.9h11.4c7.3,0,11.1-3.3,11.1-9.5v-3.2
	c0-4.2-1.5-7.2-5.4-8.5c3.2-1.3,4.7-3.9,4.7-8v-1.5C208.3,458.7,205,455.7,197.5,455.7"/>
<rect x="105" y="147.8" class="st1" width="729" height="420.2"/>
<path class="st0" d="M223.9,462.8l3.5,20.2h-7L223.9,462.8z M229.6,455.7h-10.7l-7.4,39.9h6.7l1.3-7.2h8.9l1.3,7.2h7.3L229.6,455.7z
	"/>
<polygon class="st0" points="255.9,495.6 263.4,495.6 263.4,455.7 256.9,455.7 256.9,479.6 249.4,455.7 240.3,455.7 240.3,495.6 
	246.8,495.6 246.8,466.7 "/>
<path class="st0" d="M278.5,455.7v30.4c0,6.4,3.7,10,10.9,10s10.9-3.6,10.9-10v-30.4h-6.9v30.8c0,2.9-1.5,3.9-3.8,3.9
	s-3.8-1-3.8-3.9v-30.8H278.5z"/>
<rect x="105" y="147.8" class="st1" width="729" height="420.2"/>
<polygon class="st0" points="320.8,495.6 328.3,495.6 328.3,455.7 321.8,455.7 321.8,479.6 314.3,455.7 305.2,455.7 305.2,495.6 
	311.7,495.6 311.7,466.7 "/>
<rect x="333.5" y="455.7" class="st0" width="7.3" height="39.9"/>
<polygon class="st0" points="351.5,455.7 344.1,455.7 351.3,495.6 362.1,495.6 369.3,455.7 362.6,455.7 357.1,488.2 "/>
<polygon class="st0" points="380,461.4 392.5,461.4 392.5,455.7 372.7,455.7 372.7,495.6 392.5,495.6 392.5,489.9 380,489.9 
	380,478.2 390,478.2 390,472.5 380,472.5 "/>
<path class="st0" d="M407.8,461.4c2.6,0,3.7,1.3,3.7,4.1v3.9c0,3.2-1.7,4.2-4.4,4.2h-2.9v-12.2H407.8z M419.7,495.6
	c-0.7-1.5-0.9-3.2-0.8-4.9v-6.1c0-4.2-1.2-7.2-4.8-8.5c3.2-1.3,4.8-4,4.8-8.1v-3.1c0-6.1-3.2-9.2-10.8-9.2h-11v39.9h7.3v-16.3h2.5
	c3.3,0,4.8,1.4,4.8,5.1v6.3c0,3.2,0.3,3.9,0.7,4.9H419.7z"/>
<path class="st0" d="M422.7,465.3c0,11.4,14.2,12.9,14.2,21.1c0,2.8-1.5,3.9-3.8,3.9s-3.8-1-3.8-3.9v-3.1h-6.9v2.7
	c0,6.4,3.7,10,10.9,10s10.9-3.6,10.9-10c0-11.4-14.2-12.9-14.2-21.1c0-2.9,1.3-3.9,3.6-3.9s3.6,1.1,3.6,3.9v1.9h6.9v-1.5
	c0-6.4-3.6-10-10.7-10S422.7,458.9,422.7,465.3"/>
<rect x="105" y="147.8" class="st1" width="729" height="420.2"/>
<rect x="448.4" y="455.7" class="st0" width="7.3" height="39.9"/>
<polygon class="st0" points="459,461.4 466.6,461.4 466.6,495.6 473.9,495.6 473.9,461.4 481.5,461.4 481.5,455.7 459,455.7 "/>
<polygon class="st0" points="491.7,495.6 498.9,495.6 498.9,482.4 508.1,455.7 501.2,455.7 495.6,473.9 490.1,455.7 482.5,455.7 
	491.7,482.4 "/>
<path class="st0" d="M520.7,486c0,6.4,3.9,10,11,10c7.1,0,11.1-3.6,11.1-10v-20.7c0-6.4-3.9-10-11.1-10c-7.1,0-11,3.6-11,10V486z
	 M528,464.9c0-2.9,1.5-3.9,3.8-3.9c2.3,0,3.8,1.1,3.8,3.9v21.5c0,2.9-1.5,3.9-3.8,3.9c-2.3,0-3.8-1.1-3.8-3.9V464.9z"/>
<rect x="105" y="147.8" class="st1" width="729" height="420.2"/>
<polygon class="st0" points="554.8,461.4 566.8,461.4 566.8,455.7 547.5,455.7 547.5,495.6 554.8,495.6 554.8,479.1 564.2,479.1 
	564.2,473.4 554.8,473.4 "/>
<polygon class="st0" points="578.6,461.4 586.2,461.4 586.2,495.6 593.5,495.6 593.5,461.4 601.1,461.4 601.1,455.7 578.6,455.7 "/>
<polygon class="st0" points="611.7,461.4 624.3,461.4 624.3,455.7 604.4,455.7 604.4,495.6 624.3,495.6 624.3,489.9 611.7,489.9 
	611.7,478.2 621.7,478.2 621.7,472.5 611.7,472.5 "/>
<path class="st0" d="M643,480.7v5.7c0,2.8-1.5,3.9-3.8,3.9s-3.8-1-3.8-3.9v-21.5c0-2.9,1.5-3.9,3.8-3.9s3.8,1.1,3.8,3.9v4.3h6.9
	v-3.9c0-6.4-3.7-10-10.8-10s-10.9,3.6-10.9,10V486c0,6.4,3.7,10,10.9,10s10.8-3.6,10.8-10v-5.3L643,480.7z"/>
<rect x="105" y="147.8" class="st1" width="729" height="420.2"/>
<polygon class="st0" points="661.6,478.5 669.9,478.5 669.9,495.6 677.3,495.6 677.3,455.7 669.9,455.7 669.9,472.8 661.6,472.8 
	661.6,455.7 654.3,455.7 654.3,495.6 661.6,495.6 "/>
<polygon class="st0" points="698.2,495.6 705.6,495.6 705.6,455.7 699.2,455.7 699.2,479.6 691.7,455.7 682.5,455.7 682.5,495.6 
	689.1,495.6 689.1,466.7 "/>
<path class="st0" d="M710.3,486c0,6.4,3.9,10,11.1,10s11.1-3.6,11.1-10v-20.7c0-6.4-3.9-10-11.1-10s-11.1,3.6-11.1,10V486z
	 M717.5,464.9c0-2.9,1.5-3.9,3.8-3.9s3.8,1.1,3.8,3.9v21.5c0,2.9-1.5,3.9-3.8,3.9s-3.8-1.1-3.8-3.9V464.9z"/>
<rect x="105" y="147.8" class="st1" width="729" height="420.2"/>
<polygon class="st0" points="737.1,495.6 756.3,495.6 756.3,489.9 744.4,489.9 744.4,455.7 737.1,455.7 "/>
<path class="st0" d="M759,486c0,6.4,3.9,10,11.1,10s11-3.6,11-10v-20.7c0-6.4-3.9-10-11-10s-11.1,3.6-11.1,10V486z M766.3,464.9
	c0-2.9,1.5-3.9,3.8-3.9s3.8,1.1,3.8,3.9v21.5c0,2.9-1.5,3.9-3.8,3.9s-3.8-1.1-3.8-3.9V464.9z"/>
<path class="st0" d="M796.8,479.1h3.3v7.4c0,2.8-1.5,3.9-3.8,3.9s-3.8-1-3.8-3.9v-21.5c0-2.9,1.5-3.9,3.8-3.9s3.8,1.1,3.8,3.9v4.3
	h6.9v-3.9c0-6.4-3.7-10-10.9-10s-10.8,3.6-10.8,10V486c0,6.4,3.7,10,10.8,10s10.9-3.6,10.9-10v-12.7h-10.2V479.1z"/>
<rect x="105" y="147.8" class="st1" width="729" height="420.2"/>
<polygon class="st0" points="827.1,455.7 821.5,473.9 815.9,455.7 808.3,455.7 817.5,482.4 817.5,495.6 824.8,495.6 824.8,482.4 
	834,455.7 "/>
<line class="st8" x1="105.7" y1="512.5" x2="833.3" y2="512.5"/>
<rect x="105" y="147.8" class="st1" width="729" height="420.2"/>
<rect x="106.4" y="527.5" class="st0" width="5.8" height="40"/>
<polygon class="st0" points="129.5,527.5 129.5,551.4 123.6,527.5 116.3,527.5 116.3,567.5 121.5,567.5 121.5,538.5 128.7,567.5 
	134.6,567.5 134.6,527.5 "/>
<polygon class="st0" points="151.8,527.5 147.4,545.7 142.9,527.5 136.9,527.5 144.2,554.2 144.2,567.5 150,567.5 150,554.2 
	157.3,527.5 "/>
<path class="st0" d="M159.3,527.5v30.4c0,6.4,3,10.1,8.6,10.1c5.6,0,8.6-3.7,8.6-10.1v-30.4h-5.5v30.8c0,2.9-1.2,3.9-3,3.9
	s-3-1-3-3.9v-30.8H159.3z"/>
<rect x="105" y="147.8" class="st1" width="729" height="420.2"/>
<polygon class="st0" points="193.7,527.5 189.2,560.1 184.8,527.5 179,527.5 184.7,567.5 193.3,567.5 199,527.5 "/>
<polygon class="st0" points="201.6,527.5 201.6,567.5 217.4,567.5 217.4,561.8 207.4,561.8 207.4,550.1 215.4,550.1 215.4,544.4 
	207.4,544.4 207.4,533.2 217.4,533.2 217.4,527.5 "/>
<path class="st0" d="M220.2,537.1c0,11.4,11.3,13,11.3,21.2c0,2.9-1.2,3.9-3,3.9s-3-1-3-3.9v-3.1h-5.5v2.8c0,6.4,2.9,10,8.6,10
	s8.6-3.7,8.6-10c0-11.4-11.3-13-11.3-21.2c0-2.9,1.1-3.9,2.9-3.9s2.9,1.1,2.9,3.9v1.9h5.5v-1.5c0-6.4-2.9-10-8.5-10
	S220.2,530.7,220.2,537.1"/>
<rect x="105" y="147.8" class="st1" width="729" height="420.2"/>
<rect x="240.6" y="527.5" class="st0" width="5.8" height="40"/>
<polygon class="st0" points="271.8,527.5 267.3,545.7 262.9,527.5 256.9,527.5 264.2,554.2 264.2,567.5 270,567.5 270,554.2 
	277.3,527.5 "/>
<path class="st0" d="M285.3,534.6l2.8,20.2h-5.6L285.3,534.6z M281.4,527.5l-5.9,40h5.3l1-7.3h7.1l1,7.3h5.8l-5.9-40H281.4z"/>
<path class="st0" d="M297.7,537.1c0,11.4,11.3,13,11.3,21.2c0,2.9-1.2,3.9-3,3.9s-3-1-3-3.9v-3.1h-5.5v2.8c0,6.4,3,10,8.6,10
	s8.6-3.7,8.6-10c0-11.4-11.3-13-11.3-21.2c0-2.9,1-3.9,2.9-3.9s2.9,1.1,2.9,3.9v1.9h5.5v-1.5c0-6.4-2.9-10-8.5-10
	S297.7,530.7,297.7,537.1"/>
<rect x="105" y="147.8" class="st1" width="729" height="420.2"/>
<polygon class="st0" points="318.1,527.5 318.1,567.5 333.8,567.5 333.8,561.8 323.8,561.8 323.8,550.1 331.8,550.1 331.8,544.4 
	323.8,544.4 323.8,533.2 333.8,533.2 333.8,527.5 "/>
<polygon class="st0" points="335.8,527.5 335.8,533.2 341.9,533.2 341.9,567.5 347.6,567.5 347.6,533.2 353.7,533.2 353.7,527.5 "/>
<polygon class="st0" points="368.7,527.5 368.7,544.7 362.1,544.7 362.1,527.5 356.3,527.5 356.3,567.5 362.1,567.5 362.1,550.4 
	368.7,550.4 368.7,567.5 374.6,567.5 374.6,527.5 "/>
<polygon class="st0" points="378.8,527.5 378.8,567.5 394.5,567.5 394.5,561.8 384.5,561.8 384.5,550.1 392.5,550.1 392.5,544.4 
	384.5,544.4 384.5,533.2 394.5,533.2 394.5,527.5 "/>
<polygon class="st0" points="411.6,527.5 403.9,544.9 403.9,527.5 398.1,527.5 398.1,567.5 403.9,567.5 403.9,555.2 405.7,551.5 
	411.3,567.5 417.2,567.5 409.2,545.3 417.2,527.5 "/>
<polygon class="st0" points="441.5,527.5 438.5,559.3 435.6,527.5 430.1,527.5 427.3,559 424.2,527.5 418.5,527.5 422.6,567.5 
	430.6,567.5 432.7,546.2 434.8,567.5 442.5,567.5 446.6,527.5 "/>
<rect x="449.5" y="527.5" class="st0" width="5.8" height="40"/>
<polygon class="st0" points="472.6,527.5 472.6,551.4 466.6,527.5 459.4,527.5 459.4,567.5 464.6,567.5 464.6,538.5 471.8,567.5 
	477.7,567.5 477.7,527.5 "/>
<rect x="481.9" y="527.5" class="st0" width="5.8" height="40"/>
<polygon class="st0" points="513,527.5 508.6,545.7 504.2,527.5 498.1,527.5 505.4,554.2 505.4,567.5 511.2,567.5 511.2,554.2 
	518.5,527.5 "/>
<polygon class="st0" points="520.8,527.5 520.8,567.5 536.6,567.5 536.6,561.8 526.6,561.8 526.6,550.1 534.5,550.1 534.5,544.4 
	526.6,544.4 526.6,533.2 536.6,533.2 536.6,527.5 "/>
<polygon class="st0" points="539.8,527.5 539.8,533.2 550.2,533.2 539.3,561.9 539.3,567.5 556.2,567.5 556.2,561.8 545.2,561.8 
	556.2,533.1 556.2,527.5 "/>
<path class="st0" d="M559.1,557.9c0,6.4,3.1,10,8.8,10c5.7,0,8.8-3.7,8.8-10v-20.8c0-6.4-3.1-10-8.8-10c-5.7,0-8.8,3.7-8.8,10V557.9
	z M564.9,536.7c0-2.9,1.1-3.9,3-3.9c1.8,0,3,1.1,3,3.9v21.6c0,2.8-1.2,3.9-3,3.9c-1.9,0-3-1.1-3-3.9V536.7z"/>
<path class="st0" d="M589,533.2c2,0,2.9,1.3,2.9,4.1v2.2c0,3.2-1.3,4.2-3.5,4.2h-2.3v-10.6H589z M588.8,549.5c2.6,0,3.7,1.1,3.7,4.8
	v3.5c0,3-1,3.9-3,3.9h-3.3v-12.3H588.8z M589.1,527.5h-8.7v40h9.1c5.8,0,8.8-3.3,8.8-9.5v-3.3c0-4.2-1.2-7.2-4.3-8.6
	c2.6-1.3,3.7-3.9,3.7-8v-1.4C597.7,530.6,595.1,527.6,589.1,527.5"/>
<path class="st0" d="M601.5,527.5v30.4c0,6.4,2.9,10.1,8.6,10.1s8.6-3.7,8.6-10.1v-30.4h-5.5v30.8c0,2.9-1.2,3.9-3,3.9s-3-1-3-3.9
	v-30.8H601.5z"/>
<path class="st0" d="M634,552.6v5.7c0,2.8-1.2,3.9-3,3.9s-3-1-3-3.9v-21.6c0-2.8,1.2-3.9,3-3.9s3,1.1,3,3.9v4.3h5.5v-3.9
	c0-6.4-2.9-10-8.6-10s-8.6,3.7-8.6,10v20.8c0,6.4,2.9,10,8.6,10s8.6-3.7,8.6-10v-5.3L634,552.6z"/>
<rect x="105" y="147.8" class="st1" width="729" height="420.2"/>
<polygon class="st0" points="655.3,527.5 655.3,544.7 648.7,544.7 648.7,527.5 643,527.5 643,567.5 648.7,567.5 648.7,550.4 
	655.3,550.4 655.3,567.5 661.2,567.5 661.2,527.5 "/>
<polygon class="st0" points="687.1,527.5 684.1,559.3 681.2,527.5 675.6,527.5 672.8,559 669.7,527.5 664.1,527.5 668.2,567.5 
	676.1,567.5 678.2,546.2 680.3,567.5 688,567.5 692.1,527.5 "/>
<polygon class="st0" points="695,527.5 695,567.5 710.8,567.5 710.8,561.8 700.8,561.8 700.8,550.1 708.7,550.1 708.7,544.4 
	700.8,544.4 700.8,533.2 710.8,533.2 710.8,527.5 "/>
<path class="st0" d="M722.8,533.2c1.8,0,2.8,0.9,2.8,3.8v6c0,2.8-1,3.8-2.8,3.8h-2.7v-13.5H722.8z M722.8,527.5h-8.5v40h5.8v-15h2.7
	c5.8,0,8.6-3.5,8.6-9.9v-5.2C731.5,531,728.6,527.6,722.8,527.5"/>
<rect x="105" y="147.8" class="st1" width="729" height="420.2"/>
<polygon class="st0" points="746.5,527.5 746.5,544.7 739.9,544.7 739.9,527.5 734.2,527.5 734.2,567.5 739.9,567.5 739.9,550.4 
	746.5,550.4 746.5,567.5 752.4,567.5 752.4,527.5 "/>
<polygon class="st0" points="756.6,527.5 756.6,567.5 772.3,567.5 772.3,561.8 762.4,561.8 762.4,550.1 770.3,550.1 770.3,544.4 
	762.4,544.4 762.4,533.2 772.3,533.2 772.3,527.5 "/>
<path class="st0" d="M775.2,537.1c0,11.4,11.3,13,11.3,21.2c0,2.9-1.2,3.9-3,3.9s-3-1-3-3.9v-3.1H775v2.8c0,6.4,2.9,10,8.6,10
	s8.6-3.7,8.6-10c0-11.4-11.3-13-11.3-21.2c0-2.9,1-3.9,2.9-3.9s2.9,1.1,2.9,3.9v1.9h5.5v-1.5c0-6.4-2.9-10-8.5-10
	S775.2,530.7,775.2,537.1"/>
<rect x="105" y="147.8" class="st1" width="729" height="420.2"/>
<polygon class="st0" points="807.9,527.5 807.9,544.7 801.4,544.7 801.4,527.5 795.6,527.5 795.6,567.5 801.4,567.5 801.4,550.4 
	807.9,550.4 807.9,567.5 813.8,567.5 813.8,527.5 "/>
<polygon class="st0" points="818,527.5 818,567.5 833.8,567.5 833.8,561.8 823.8,561.8 823.8,550.1 831.8,550.1 831.8,544.4 
	823.8,544.4 823.8,533.2 833.8,533.2 833.8,527.5 "/>
</svg>
